<!--?xml version="1.0" standalone="no"?-->              <svg id="sw-js-blob-svg" viewBox="0 0 100 100" xmlns="http://www.w3.org/2000/svg">                    <defs>                         <linearGradient id="sw-gradient" x1="0" x2="1" y1="1" y2="0">                            <stop id="stop1" stop-color="rgba(248, 117, 55, 1)" offset="0%"></stop>                            <stop id="stop2" stop-color="rgba(251, 168, 31, 1)" offset="100%"></stop>                        </linearGradient>                    </defs>                <path fill="url(#sw-gradient)" d="M22.8,-38.6C29.7,-35.6,35.3,-29.6,35.7,-22.7C36,-15.8,31,-7.9,29.8,-0.7C28.6,6.5,31.1,12.9,29.4,17.5C27.7,22.1,21.8,24.8,16.2,26.8C10.6,28.8,5.3,30.2,-0.4,30.9C-6.1,31.6,-12.3,31.8,-17.9,29.8C-23.5,27.7,-28.5,23.5,-29.9,18.2C-31.4,12.9,-29.2,6.4,-28.6,0.3C-28,-5.7,-29,-11.5,-27.8,-17.3C-26.6,-23.2,-23.4,-29.1,-18.4,-33.1C-13.5,-37.2,-6.7,-39.5,0.6,-40.6C8,-41.7,16,-41.6,22.8,-38.6Z" width="100%" height="100%" transform="translate(50 50)" stroke-width="0" style="transition: 0.3s;" stroke="url(#sw-gradient)"></path>              </svg>